<?xml version="1.0" standalone="no"?>
<!DOCTYPE svg PUBLIC "-//W3C//DTD SVG 20010904//EN"
 "http://www.w3.org/TR/2001/REC-SVG-20010904/DTD/svg10.dtd">
<svg version="1.0" xmlns="http://www.w3.org/2000/svg"
 width="244.000000pt" height="201.000000pt" viewBox="0 0 244.000000 201.000000"
 preserveAspectRatio="xMidYMid meet">

<g transform="translate(0.000000,201.000000) scale(0.100000,-0.100000)"
fill="#000000" stroke="none">
<path d="M1871 1772 c-29 -71 -110 -124 -241 -161 l-76 -21 -57 20 c-74 26
-97 25 -28 -2 38 -14 50 -23 40 -29 -8 -5 -22 -9 -32 -9 -25 0 -101 -54 -125
-88 -10 -15 -24 -40 -30 -57 -10 -26 -11 -24 -6 24 l6 54 -42 -24 c-49 -28
-71 -56 -81 -107 l-7 -37 -1 44 -1 45 -36 -35 c-48 -46 -64 -79 -66 -136 l-1
-48 -4 43 c-2 23 -8 42 -12 42 -4 0 -18 -22 -31 -49 -19 -43 -22 -61 -18 -128
4 -65 3 -73 -6 -46 -19 55 -26 48 -26 -27 0 -57 6 -85 27 -132 l27 -60 23 85
c36 138 91 233 197 346 57 60 195 161 220 161 6 0 -14 -16 -44 -36 -178 -118
-335 -362 -355 -550 l-7 -61 -66 -12 c-37 -7 -106 -28 -153 -47 -48 -19 -89
-34 -91 -34 -3 0 -15 22 -28 50 -13 27 -25 48 -27 46 -3 -2 5 -22 16 -45 25
-47 26 -61 7 -61 -7 0 -25 27 -40 60 -83 184 -70 411 33 581 110 181 296 291
521 309 l95 7 -76 2 c-281 5 -554 -206 -624 -484 -20 -77 -19 -234 0 -310 9
-33 28 -86 42 -118 30 -66 28 -69 -41 -88 -21 -6 -36 -12 -34 -15 7 -7 106 26
176 57 79 37 193 75 248 84 l41 6 6 -38 c12 -67 10 -71 -33 -83 -50 -14 -75
-47 -61 -83 11 -28 45 -51 64 -43 7 2 6 5 -4 5 -22 1 -49 33 -49 59 0 27 36
52 75 52 26 0 33 -5 44 -35 7 -19 19 -35 27 -35 12 0 12 4 -1 31 -9 17 -14 33
-12 35 7 7 137 -29 137 -37 0 -14 -66 -48 -115 -60 -71 -16 -101 -31 -50 -24
130 19 195 63 211 142 5 25 0 37 -26 66 -34 40 -81 58 -145 56 -39 -1 -38 -2
13 -10 62 -10 127 -41 136 -64 11 -29 6 -75 -8 -81 -7 -3 -42 2 -76 11 -34 9
-68 14 -75 11 -20 -7 -38 85 -32 160 6 83 45 161 104 214 51 45 51 47 -3 24
-32 -14 -36 -14 -26 -1 19 23 115 55 246 82 65 13 121 27 124 30 12 11 -205 3
-240 -9 -21 -8 -38 -12 -38 -9 0 17 97 37 236 48 157 13 207 25 249 59 19 16
18 17 -20 11 -22 -3 -105 -9 -185 -14 -82 -5 -164 -16 -190 -25 -39 -14 -42
-14 -25 -1 33 26 85 36 231 45 78 5 155 12 170 16 71 16 142 79 167 147 8 23
4 22 -44 -9 -40 -25 -111 -54 -132 -54 -5 0 23 17 64 38 96 49 131 92 137 169
l4 58 -29 -40 c-47 -63 -70 -76 -29 -15 37 53 38 57 34 127 -4 84 -19 109 -37
65z"/>
<path d="M1368 1633 c6 -2 18 -2 25 0 6 3 1 5 -13 5 -14 0 -19 -2 -12 -5z"/>
<path d="M820 1398 c-29 -38 -30 -40 -6 -18 25 23 52 60 43 60 -2 0 -19 -19
-37 -42z"/>
<path d="M772 1338 c-14 -19 -64 -119 -60 -123 2 -2 19 28 39 66 36 69 40 80
21 57z"/>
<path d="M1835 1294 c85 -194 85 -389 0 -559 -43 -88 -120 -185 -146 -185 -26
0 -24 10 12 45 37 36 107 135 96 135 -3 0 -19 -21 -35 -47 -17 -27 -51 -68
-75 -92 l-45 -43 -73 12 c-41 6 -116 22 -166 35 -51 13 -93 19 -93 15 0 -8
154 -47 277 -71 36 -6 114 -10 185 -7 113 3 129 6 191 35 37 18 67 34 67 36 0
3 -28 -7 -62 -20 -59 -24 -190 -47 -230 -41 -15 3 -11 12 27 58 55 66 109 172
130 255 18 70 21 219 6 287 -15 64 -50 156 -63 164 -8 5 -9 1 -3 -12z"/>
<path d="M1791 1295 c0 -5 6 -21 14 -35 8 -14 14 -20 14 -15 0 6 -6 21 -14 35
-8 14 -14 21 -14 15z"/>
<path d="M1827 1210 c3 -14 12 -47 20 -75 l13 -50 -5 43 c-3 24 -12 58 -20 75
-10 22 -13 24 -8 7z"/>
<path d="M686 1148 c-3 -13 -5 -32 -5 -43 1 -11 5 -2 10 19 10 42 6 62 -5 24z"/>
<path d="M1863 1010 c0 -41 2 -58 4 -37 2 20 2 54 0 75 -2 20 -4 3 -4 -38z"/>
<path d="M673 1010 c0 -36 2 -50 4 -32 2 17 2 47 0 65 -2 17 -4 3 -4 -33z"/>
<path d="M682 900 c0 -14 2 -19 5 -12 2 6 2 18 0 25 -3 6 -5 1 -5 -13z"/>
<path d="M1852 900 c0 -14 2 -19 5 -12 2 6 2 18 0 25 -3 6 -5 1 -5 -13z"/>
<path d="M691 854 c0 -11 3 -14 6 -6 3 7 2 16 -1 19 -3 4 -6 -2 -5 -13z"/>
<path d="M1841 854 c0 -11 3 -14 6 -6 3 7 2 16 -1 19 -3 4 -6 -2 -5 -13z"/>
<path d="M1812 775 c-17 -37 -14 -45 4 -12 9 16 14 31 11 33 -2 2 -9 -7 -15
-21z"/>
<path d="M740 651 c0 -22 135 -154 194 -190 102 -61 177 -83 311 -88 137 -6
209 8 310 59 66 33 129 77 121 85 -2 3 -20 -6 -38 -20 -101 -78 -260 -123
-402 -114 -185 10 -331 86 -458 236 -21 25 -38 39 -38 32z"/>
<path d="M845 591 c22 -23 54 -52 70 -63 35 -25 30 -20 -50 52 -51 46 -54 48
-20 11z"/>
<path d="M1584 504 c-18 -14 -18 -15 4 -4 12 6 22 13 22 15 0 8 -5 6 -26 -11z"/>
<path d="M1540 480 c-9 -6 -10 -10 -3 -10 6 0 15 5 18 10 8 12 4 12 -15 0z"/>
<path d="M1470 450 c-8 -5 -10 -10 -5 -10 6 0 17 5 25 10 8 5 11 10 5 10 -5 0
-17 -5 -25 -10z"/>
<path d="M1098 433 c7 -3 16 -2 19 1 4 3 -2 6 -13 5 -11 0 -14 -3 -6 -6z"/>
<path d="M1138 423 c7 -3 16 -2 19 1 4 3 -2 6 -13 5 -11 0 -14 -3 -6 -6z"/>
<path d="M1388 423 c7 -3 16 -2 19 1 4 3 -2 6 -13 5 -11 0 -14 -3 -6 -6z"/>
<path d="M1223 413 c26 -2 68 -2 95 0 26 2 4 3 -48 3 -52 0 -74 -1 -47 -3z"/>
</g>
</svg>
